<svg xmlns="http://www.w3.org/2000/svg" width="512" height="512" viewBox="0 0 9000 9000" preserveAspectRatio="xMidYMid meet" fill="#0066cd"><path d="M4065 2.1c-200.8 20.1-373.3 47.6-558.5 89-590.4 132-1153.6 385.6-1647.5 742-320.5 231.3-611.5 505.5-861.1 811.4-265.3 325.2-483.4 683.9-648.4 1066.5C164 3141.2 47.8 3593.6 2.5 4061.7L0 4088v824l2.5 26.3c25.6 264.2 74 524.9 144.5 777.9C310.2 6301.3 591.2 6848.7 972.4 7324c132.1 164.7 271.5 315.8 425.1 461.1 357 337.4 768 615.5 1212 820.1 459.8 211.9 946.9 343.4 1452.2 392.3l26.3 2.5h824l26.3-2.5c545.4-52.7 1068.2-201.4 1559.2-443.4 368.5-181.7 713.3-415.1 1021-691.5 118.4-106.4 237.7-225.7 344.1-344.1 410.9-457.5 723.9-992.7 919.4-1572 110.4-327.4 182-662.5 215.5-1008.2l2.5-26.3v-824l-2.5-26.3c-25.6-264.2-74-524.9-144.5-777.9-170.5-611.2-468.9-1180-876.4-1670.3-116.6-140.2-241.1-272.9-374.1-398.6-384.8-363.6-829.7-656.7-1313.5-865.4-429.7-185.4-882.7-301.7-1350.7-347L4912 0l-414.2.1-432.8 2zM5819.5 520c139.3 9 273.2 52.5 388 126.2 69.6 44.7 135.4 104.2 189.1 170.8 92.6 114.9 159.7 257.2 202.9 430 3 11.8 277.7 1231.8 610.5 2711l610.1 2708c19.9 74.6 30.3 153.5 31.6 239.5 1.4 96.5-9.1 179.6-33.2 264-56.1 196.3-180.7 354.1-368 466.2-26.2 15.7-45.6 26.2-75 40.8-61.3 30.3-113.2 51-190.6 76.1-50.9 16.5-83.4 23.3-136.4 28.6-17.4 1.7-82.7 1.7-99.5 0-52.7-5.4-95.7-15.2-139.3-31.6-173.2-65.2-305.5-222.4-389.2-462.6-42.1-120.8-72.6-264.4-90.5-426.5-1.6-14.4-18.7-102.5-87.1-449l-85.9-431.8c-.7-.8-2636.4-11.9-2732.9-11.4l-55.5.2-397.5 705.1-405.6 718c-23.4 37.5-61.5 87.6-97.4 127.9-27.1 30.5-74.6 76-107.1 102.6-146.8 120.1-314.4 174.7-483 157.4-99.1-10.2-197.9-42.7-299.6-98.5-33.4-18.3-65.2-42.9-97.6-75.4-104.9-105-159.3-244.3-155.4-397.6 2.7-108.4 30.6-218.8 86.2-342 24.3-53.9-42 61.8 1673.4-2919.5l1645.3-2861c38.9-73.7 100.1-155.7 168.7-225.9 118.4-121.1 261.9-212.8 422.5-269.9 114.6-40.7 236.6-63.4 369.5-68.7 46.9-1.9 107.2-2.3 128.5-1zm-2030.6 914l-8 818.1c-.3.6-91.4-51.9-202.4-116.6l-203.1-116.3c-.6.7-412.3 721.2-914.9 1601.1l-915.6 1598.5c-3-2.1-1229.8-1075.3-1229.8-1075.8-.1-.7 392.9-517.5 393.8-517.8.4-.1 151.9 121.3 336.6 269.8l335.9 270 1.7-2.8c4.8-7.8 1412.3-2480.9 1412.6-2482.2.3-1.1-51.9-32.6-191.7-115.5l-192.1-114.9c0-.8 1383.3-833.5 1384-833 .2.2-3 368-7 817.4zm903.4 2038.9l-763.9 1418.3c-.6 1.7 48.3 1.8 1017.1 1.8l1017.1-1.8c-.3-.9-114.1-638.5-253.1-1416.7l-253.3-1416.6c-.5-1.2-232.2 428-763.9 1415z"/></svg>