<?xml version="1.0" encoding="UTF-8"?>
<!DOCTYPE svg PUBLIC "-//W3C//DTD SVG 1.0//EN" "http://www.w3.org/TR/2001/REC-SVG-20010904/DTD/svg10.dtd">
<!-- Creator: CorelDRAW X7 -->
<svg xmlns="http://www.w3.org/2000/svg" xml:space="preserve" width="215.9mm" height="279.4mm" version="1.0" shape-rendering="geometricPrecision" text-rendering="geometricPrecision" image-rendering="optimizeQuality" fill-rule="evenodd" clip-rule="evenodd"
viewBox="0 0 216 279"
 xmlns:xlink="http://www.w3.org/1999/xlink">
 <g id="Layer_x0020_1">
  <metadata id="CorelCorpID_0Corel-Layer"/>
  <g id="_738785656">
   <path fill="#FEFEFE" d="M106 78c-18,-1 -33,-4 -29,-44 13,16 28,12 29,31l0 13z"/>
   <path fill="#FEFEFE" d="M113 78c18,-1 34,-4 30,-43 -13,15 -29,11 -30,30l0 13z"/>
   <path fill="#FEFEFE" d="M110 6l-2 3c-44,60 50,60 2,-3z"/>
   <path fill="#FEFEFE" fill-rule="nonzero" d="M39 154l0 1c0,1 0,2 1,3 0,1 1,1 2,1 1,0 3,0 4,-1 1,0 2,-1 4,-2 1,-1 2,-2 4,-3l0 2c-3,3 -5,5 -7,7 -3,2 -5,3 -8,3 -2,0 -3,-1 -5,-3 -1,-1 -1,-4 -1,-7 0,-2 0,-4 1,-6 2,-2 3,-4 6,-7 2,-1 4,-2 5,-3 2,-1 4,-1 5,-1 1,0 2,0 3,1 0,0 1,1 1,2 0,1 -1,3 -2,4 -1,2 -3,3 -5,5 -2,1 -5,2 -8,4zm0 -2c2,-1 4,-2 5,-4 2,-1 3,-2 4,-3 0,-1 1,-2 1,-3 0,0 0,0 -1,0 0,0 -1,0 -2,0 -1,1 -2,2 -3,3 -1,0 -2,1 -3,3 0,1 -1,2 -1,4z"/>
   <polygon id="1" fill="#FEFEFE" fill-rule="nonzero" points="93,115 93,164 82,164 62,133 62,164 57,164 57,115 66,115 88,148 88,115 "/>
   <path id="2" fill="#FEFEFE" fill-rule="nonzero" d="M123 115l13 49 -14 0 -3 -11 -14 0 -3 11 -6 0 14 -49 13 0zm-17 33l12 0 -6 -21 -6 21z"/>
   <polygon id="3" fill="#FEFEFE" fill-rule="nonzero" points="185,115 185,164 171,164 171,130 162,164 154,164 144,131 144,164 140,164 140,115 154,115 162,145 170,115 "/>
   <g>
    <polygon fill="#FEFEFE" points="173,188 189,175 171,171 "/>
    <rect fill="#FEFEFE" transform="matrix(6.64449 -5.57539 5.57539 6.64449 178.71 183.858)" width="0.6615" height="1.3229"/>
   </g>
   <rect fill="none" stroke="#FEFEFE" stroke-width="4.2333" x="12" y="83" width="194" height="125"/>
   <rect fill="#FEFEFE" stroke="#FEFEFE" stroke-width="0.3527" x="12" y="209" width="194.356" height="18.0699"/>
   <rect fill="#FEFEFE" stroke="#FEFEFE" stroke-width="0.3527" x="81" y="227" width="55.5318" height="18.0699"/>
   <rect fill="#FEFEFE" stroke="#FEFEFE" stroke-width="0.3527" x="67" y="246" width="84.648" height="7.28735"/>
  </g>
 </g>
</svg>
