<?xml version="1.0" encoding="UTF-8"?>
<!DOCTYPE svg PUBLIC "-//W3C//DTD SVG 1.0//EN" "http://www.w3.org/TR/2001/REC-SVG-20010904/DTD/svg10.dtd">
<!-- Creator: CorelDRAW X7 -->
<svg xmlns="http://www.w3.org/2000/svg" xml:space="preserve" width="279.4mm" height="215.9mm" version="1.0" shape-rendering="geometricPrecision" text-rendering="geometricPrecision" image-rendering="optimizeQuality" fill-rule="evenodd" clip-rule="evenodd"
viewBox="0 0 279 216"
 xmlns:xlink="http://www.w3.org/1999/xlink">
 <g id="Layer_x0020_1">
  <metadata id="CorelCorpID_0Corel-Layer"/>
  <g id="_738307848">
   <path fill="#FEFEFE" d="M99 112c31,-76 55,-61 153,-74 -33,16 -122,4 -136,74l-17 0z"/>
   <path fill="#FEFEFE" d="M125 113c-1,-1 47,-124 154,8 -18,-9 -95,-97 -139,-9l-15 1z"/>
   <path fill="#FEFEFE" d="M64 113l18 0 1 -25c-10,-35 -76,-50 -80,29 25,1 13,-46 49,-43 7,6 11,12 13,20l-1 19z"/>
   <polygon fill="#FEFEFE" points="54,180 36,180 45,161 61,161 "/>
   <polygon fill="#FEFEFE" points="79,180 61,180 70,161 86,161 "/>
   <polygon fill="#FEFEFE" points="103,180 85,180 94,161 110,161 "/>
   <polygon fill="#FEFEFE" points="94,85 83,65 96,54 113,58 "/>
   <polygon fill="#FEFEFE" points="100,50 114,36 124,41 115,53 "/>
   <polygon fill="#FEFEFE" points="119,32 136,18 127,36 "/>
   <polygon fill="none" fill-rule="nonzero" stroke="#FEFEFE" stroke-width="3.5277" points="33,156 41,156 47,133 53,148 53,148 67,133 61,156 69,156 79,120 70,120 56,135 51,120 43,120 "/>
   <path id="1" fill="none" fill-rule="nonzero" stroke="#FEFEFE" stroke-width="3.5277" d="M74 156l9 0 5 -8 15 0 1 8 8 0 -5 -36 -8 0 -25 36zm19 -15l8 -12 1 12 -9 0z"/>
   <polygon id="2" fill="none" fill-rule="nonzero" stroke="#FEFEFE" stroke-width="3.5277" points="117,156 124,156 131,132 142,156 148,156 158,120 150,120 144,143 134,120 126,120 "/>
   <path id="3" fill="none" fill-rule="nonzero" stroke="#FEFEFE" stroke-width="3.5277" d="M153 156l9 0 5 -8 15 0 1 8 8 0 -5 -36 -8 0 -25 36zm19 -15l8 -12 1 12 -9 0z"/>
   <path id="4" fill="none" fill-rule="nonzero" stroke="#FEFEFE" stroke-width="3.5277" d="M213 156c5,0 9,-1 13,-3l5 -18 -16 0 -2 7 8 0 -2 6c-1,1 -3,1 -6,1 -5,0 -9,-3 -9,-8 0,-8 6,-14 14,-14 4,0 7,2 9,4l6 -5c-3,-4 -7,-6 -15,-6 -13,0 -22,10 -22,21 0,11 8,15 17,15z"/>
   <polygon id="5" fill="none" fill-rule="nonzero" stroke="#FEFEFE" stroke-width="3.5277" points="233,156 260,156 262,149 243,149 245,141 261,141 263,134 246,134 248,127 267,127 269,120 242,120 "/>
   <rect fill="#FEFEFC" x="115" y="161" width="154.571" height="4.33614"/>
  </g>
 </g>
</svg>
